<?xml version="1.0" standalone="no"?>
<!DOCTYPE svg PUBLIC "-//W3C//DTD SVG 20010904//EN"
 "http://www.w3.org/TR/2001/REC-SVG-20010904/DTD/svg10.dtd">
<svg version="1.0" xmlns="http://www.w3.org/2000/svg"
 width="1920.000000pt" height="1920.000000pt" viewBox="0 0 1920.000000 1920.000000"
 preserveAspectRatio="xMidYMid meet">
<metadata>
Created by potrace 1.11, written by Peter Selinger 2001-2013
</metadata>
<g transform="translate(0.000000,1920.000000) scale(0.100000,-0.100000)"
fill="#000000" stroke="none">
<path d="M9397 18974 c-1 -1 -87 -5 -192 -8 -104 -4 -210 -8 -235 -10 -25 -2
-83 -7 -130 -10 -47 -4 -107 -9 -135 -11 -27 -3 -70 -7 -95 -9 -63 -6 -230
-26 -260 -31 -14 -2 -47 -7 -75 -10 -27 -2 -61 -7 -75 -10 -13 -2 -42 -7 -65
-10 -22 -3 -65 -10 -95 -16 -30 -6 -68 -12 -84 -14 -16 -3 -101 -18 -190 -35
-152 -29 -217 -44 -412 -91 -45 -11 -91 -21 -102 -24 -11 -2 -30 -9 -41 -15
-12 -6 -21 -9 -21 -6 0 3 -15 0 -32 -5 -18 -5 -46 -12 -62 -15 -16 -2 -36 -9
-45 -13 -9 -5 -34 -12 -56 -16 -22 -4 -44 -10 -50 -13 -5 -4 -12 -7 -15 -8
-31 -5 -431 -133 -485 -155 -17 -7 -34 -13 -40 -15 -13 -3 -108 -38 -220 -81
-88 -33 -109 -42 -170 -68 -238 -101 -302 -129 -370 -160 -44 -21 -81 -37 -82
-37 -13 0 -541 -275 -563 -294 -8 -7 -18 -13 -23 -13 -9 0 -157 -86 -317 -184
-235 -144 -613 -404 -785 -539 -198 -156 -418 -337 -491 -403 -6 -5 -47 -41
-90 -80 -191 -171 -519 -498 -663 -661 -19 -22 -53 -59 -75 -84 -274 -306
-615 -753 -834 -1095 -28 -44 -56 -87 -62 -95 -19 -28 -120 -191 -120 -194 0
-3 -88 -154 -120 -206 -57 -94 -291 -548 -347 -675 -18 -38 -45 -100 -62 -137
-17 -37 -42 -96 -56 -130 -15 -35 -32 -76 -40 -93 -7 -16 -25 -61 -40 -100
-15 -38 -33 -83 -40 -100 -7 -16 -41 -109 -75 -205 -34 -96 -66 -184 -71 -195
-7 -17 -39 -120 -114 -363 -7 -23 -14 -46 -14 -50 -1 -4 -6 -23 -11 -42 -5
-19 -10 -38 -10 -42 0 -4 -7 -26 -15 -48 -8 -22 -12 -40 -10 -40 3 0 0 -12 -6
-27 -6 -16 -13 -37 -15 -48 -2 -11 -11 -49 -20 -85 -9 -36 -18 -74 -20 -85 -1
-11 -3 -20 -4 -20 -2 0 -7 -21 -15 -60 -3 -16 -8 -38 -11 -47 -3 -10 -7 -28
-10 -40 -2 -13 -6 -34 -9 -48 -6 -28 -51 -257 -60 -305 -3 -16 -12 -75 -21
-130 -8 -55 -17 -111 -20 -125 -2 -14 -8 -61 -14 -105 -6 -44 -13 -91 -15
-105 -2 -14 -7 -56 -11 -95 -3 -38 -8 -79 -10 -90 -3 -11 -6 -47 -9 -80 -2
-33 -7 -91 -11 -130 -4 -38 -8 -90 -9 -115 -1 -25 -6 -117 -11 -205 -14 -282
-9 -887 11 -1100 2 -22 6 -76 10 -120 7 -91 12 -148 20 -220 3 -27 8 -72 10
-100 3 -27 8 -66 11 -85 6 -37 10 -66 19 -140 6 -46 22 -149 29 -186 2 -12 7
-45 11 -75 4 -30 8 -56 10 -59 3 -5 27 -130 41 -215 3 -16 14 -67 25 -113 10
-46 21 -97 24 -114 3 -17 8 -35 10 -38 3 -4 7 -24 11 -45 3 -20 30 -127 60
-238 30 -111 56 -209 59 -217 37 -143 223 -689 271 -795 7 -16 25 -61 40 -100
14 -38 35 -88 44 -110 10 -22 33 -74 51 -115 51 -120 77 -176 156 -340 103
-214 162 -327 248 -480 23 -41 51 -91 62 -110 161 -285 432 -694 633 -958 134
-177 210 -273 244 -313 17 -20 40 -47 50 -60 24 -30 189 -222 196 -229 3 -3
57 -61 120 -130 174 -188 463 -473 629 -620 41 -36 79 -70 85 -75 17 -15 128
-110 155 -131 13 -11 28 -24 35 -29 57 -53 345 -275 490 -380 15 -11 36 -27
46 -35 11 -8 74 -52 142 -98 107 -72 167 -111 348 -227 19 -13 76 -46 125 -75
50 -29 106 -63 125 -75 153 -96 602 -325 865 -442 94 -41 184 -81 200 -88 17
-8 73 -30 125 -51 52 -20 109 -42 125 -49 17 -8 82 -32 145 -55 63 -23 124
-45 135 -50 42 -17 379 -124 460 -146 6 -2 75 -21 155 -44 80 -22 154 -42 165
-45 11 -2 67 -16 125 -30 58 -15 114 -28 125 -30 11 -2 29 -6 40 -8 32 -8 108
-25 135 -31 93 -18 270 -51 325 -60 223 -36 227 -37 375 -56 126 -16 149 -19
215 -25 33 -3 76 -8 95 -10 19 -2 76 -7 125 -11 50 -3 106 -8 125 -9 292 -24
997 -24 1280 0 25 2 81 7 125 10 44 3 91 8 105 10 14 2 59 7 100 10 41 4 89 9
105 11 17 2 54 6 84 10 30 3 62 7 72 9 16 3 72 11 139 20 35 5 111 17 135 21
11 2 61 11 110 19 50 9 110 20 135 25 25 5 56 12 70 14 51 9 188 38 290 62 58
14 112 27 121 29 186 39 737 207 952 289 34 13 118 45 187 71 159 60 210 81
445 185 171 76 529 251 533 262 2 4 12 8 23 8 10 0 19 4 19 8 0 4 16 14 35 21
19 7 35 17 35 22 0 5 8 9 18 9 10 0 22 4 28 9 5 5 70 44 144 86 172 98 364
217 368 227 2 4 8 8 14 8 8 0 210 130 253 163 5 4 62 44 125 89 107 75 279
202 325 239 11 9 70 56 130 105 277 221 589 505 829 753 39 41 87 90 106 110
90 93 287 316 429 486 102 123 352 454 441 585 30 45 60 86 65 93 12 14 157
236 200 307 61 100 130 216 145 242 8 14 45 80 83 145 78 137 276 526 343 675
25 57 54 121 64 143 38 85 120 286 170 420 29 77 61 161 71 187 10 25 20 55
22 65 1 10 5 23 8 28 4 6 29 82 58 170 28 88 55 174 61 190 30 95 136 498 161
615 5 25 11 54 14 65 3 11 7 29 9 40 2 11 9 40 15 65 10 46 14 67 25 130 10
59 16 92 32 180 21 118 45 276 59 395 3 22 7 56 10 75 6 45 14 122 20 185 3
28 7 68 10 90 2 22 7 83 10 135 4 52 8 111 10 130 21 208 21 851 0 1160 -12
173 -16 229 -20 270 -3 25 -7 68 -10 95 -6 59 -15 148 -20 191 -12 106 -15
126 -19 146 -3 13 -8 45 -11 71 -5 44 -57 355 -70 417 -2 14 -10 50 -16 80
-22 112 -69 326 -79 355 -5 17 -11 41 -14 55 -28 145 -162 590 -276 915 -39
111 -197 507 -238 595 -16 36 -57 126 -92 200 -127 277 -326 646 -499 929 -75
123 -290 451 -301 461 -3 3 -33 43 -65 90 -33 47 -65 92 -72 100 -6 8 -49 65
-95 125 -45 61 -88 117 -94 125 -35 44 -269 326 -273 330 -3 3 -24 25 -45 50
-155 179 -519 552 -681 700 -92 84 -206 184 -245 216 -19 16 -42 36 -50 44
-46 44 -288 237 -460 367 -100 76 -291 210 -435 305 -127 84 -423 268 -431
268 -2 0 -33 18 -69 40 -36 22 -67 40 -69 40 -2 0 -48 25 -102 56 -184 104
-562 287 -829 402 -94 41 -327 134 -340 136 -5 1 -15 4 -20 8 -23 14 -435 154
-610 207 -95 29 -353 100 -385 106 -8 2 -35 8 -60 15 -25 7 -52 13 -60 15 -8
2 -33 8 -55 13 -22 6 -51 13 -65 16 -14 2 -47 10 -75 16 -27 6 -60 14 -72 16
-13 2 -33 6 -45 8 -24 4 -55 11 -98 21 -14 3 -40 7 -59 10 -18 2 -41 7 -50 9
-9 3 -34 7 -56 11 -22 3 -78 12 -125 20 -47 8 -105 17 -130 20 -25 3 -56 7
-70 10 -14 2 -43 7 -65 10 -137 17 -166 20 -275 30 -36 3 -76 7 -90 10 -43 8
-216 19 -470 31 -125 5 -549 11 -553 8z"/>
</g>
</svg>
